<?xml version="1.0" standalone="no"?>
<!DOCTYPE svg PUBLIC "-//W3C//DTD SVG 20010904//EN" "http://www.w3.org/TR/2001/REC-SVG-20010904/DTD/svg10.dtd">
<!-- Created using Krita: https://krita.org -->
<svg xmlns="http://www.w3.org/2000/svg" 
    xmlns:xlink="http://www.w3.org/1999/xlink"
    xmlns:krita="http://krita.org/namespaces/svg/krita"
    xmlns:sodipodi="http://sodipodi.sourceforge.net/DTD/sodipodi-0.dtd"
    width="737.28pt"
    height="737.28pt"
    viewBox="0 0 737.28 737.28">
<defs/>
<rect id="shape0" transform="translate(101.52, 447.12)" fill="#ffffff" fill-rule="evenodd" stroke-opacity="0" stroke="#000000" stroke-width="0" stroke-linecap="square" stroke-linejoin="bevel" width="535.68" height="133.92"/><path id="shape01" transform="translate(108.53999999849, 498.960000012065)" fill="#478cbf" fill-rule="evenodd" stroke-opacity="0" stroke="#000000" stroke-width="0" stroke-linecap="square" stroke-linejoin="bevel" d="M0 24.75L86.4 9.36L88.74 50.04C88.4325 58.8385 94.2131 60.7877 101.52 61.02L197.1 47.52C209.527 48.0778 211.075 44.103 212.22 39.96L217.62 0.36L302.22 0L307.8 38.7C308.021 47.7385 314.559 48.881 322.38 48.42L417.42 60.48C428.048 60.6213 432.349 56.0168 431.46 47.52L432.18 9L521.1 25.56L518.94 39.96C472.972 134.538 381.635 145.893 253.26 151.2C133.914 145.431 46.1945 132.822 1.62 37.8Z" sodipodi:nodetypes="cccccccccccccccccc"/><path id="shape1" transform="translate(108.359996658975, 145.685085241758)" fill="#478cbf" fill-rule="evenodd" stroke="#478cbf" stroke-width="0.72" stroke-linecap="square" stroke-linejoin="bevel" d="M0 357.415L0.72 169.675C120.731 -53.4582 401.632 -59.4548 520.2 169.135L520.2 357.775L429.48 342.475C415.883 341.593 413.595 348.385 413.28 356.515L410.4 394.135L327.42 380.275L322.56 343.915C321.487 335.249 316.789 331.153 308.52 332.575L213.3 332.395C200.776 331.45 200.053 337.652 198.18 343.195L192.96 379.555L110.34 394.315L107.28 354.535C106.305 344.494 101.363 341.072 92.16 341.575Z" sodipodi:nodetypes="ccccccccccccccccc"/><ellipse id="shape2" transform="translate(173.52, 319.68)" rx="57.96" ry="57.6" cx="57.96" cy="57.6" fill="#ffffff" fill-rule="evenodd" stroke-opacity="0" stroke="#000000" stroke-width="0" stroke-linecap="square" stroke-linejoin="bevel"/><ellipse id="shape3" transform="translate(199.44, 344.16)" rx="37.8" ry="37.44" cx="37.8" cy="37.44" fill="#000000" fill-rule="evenodd" stroke-opacity="0" stroke="#000000" stroke-width="0" stroke-linecap="square" stroke-linejoin="bevel"/><path id="shape4" transform="translate(174.23999983773, 306.719999714351)" fill="#478cbf" fill-rule="evenodd" stroke-opacity="0" stroke="#000000" stroke-width="0" stroke-linecap="square" stroke-linejoin="bevel" d="M119.16 78.12C68.252 78.868 63.0473 24.9127 0 39.24L1.44 0L128.16 2.16L119.16 78.12" sodipodi:nodetypes="ccccc"/><rect id="shape5" transform="translate(350.099999673954, 353.699999670602)" fill="#ffffff" fill-rule="evenodd" stroke-opacity="0" stroke="#000000" stroke-width="0" stroke-linecap="square" stroke-linejoin="bevel" width="37.6199768550509" height="85.5000003293984" rx="17.8199768734905" ry="17.8199768734905"/><ellipse id="shape02" transform="matrix(-0.993016760102036 0 0 1.00814606391386 562.139999476484 318.021573032794)" rx="57.96" ry="57.6" cx="57.96" cy="57.6" fill="#ffffff" fill-rule="evenodd" stroke-opacity="0" stroke="#000000" stroke-width="0" stroke-linecap="square" stroke-linejoin="bevel"/><ellipse id="shape11" transform="matrix(-0.993016760102036 0 0 1.00814606391386 536.40100505464 342.700988677405)" rx="37.8" ry="37.44" cx="37.8" cy="37.44" fill="#000000" fill-rule="evenodd" stroke-opacity="0" stroke="#000000" stroke-width="0" stroke-linecap="square" stroke-linejoin="bevel"/><path id="shape21" transform="matrix(-0.993016760102036 0 0 1.00814606391386 561.425027570348 304.955999756494)" fill="#478cbf" fill-rule="evenodd" stroke-opacity="0" stroke="#000000" stroke-width="0" stroke-linecap="square" stroke-linejoin="bevel" d="M119.16 78.12C68.252 78.868 63.0473 24.9127 0 39.24L1.44 0L128.16 2.16L119.16 78.12" sodipodi:nodetypes="ccccc"/><path id="shape03" transform="translate(41.3891377799726, 104.280371698589)" fill="#2f2313" fill-rule="evenodd" stroke-opacity="0" stroke="#000000" stroke-width="0" stroke-linecap="square" stroke-linejoin="bevel" d="M33.9409 203.43C106.157 -66.4995 541.827 -69.2679 618.851 203.88L656.111 434.64C661.764 465.015 577.626 553.266 501.301 557.275C498.66 497.181 499.01 502.932 496.97 449.76C535.239 426.847 535.221 426.522 567.906 384.372C567.098 332.02 557.739 286.615 546.311 200.1C463.402 215.136 209.733 230.461 108.911 202.8C100.096 281.995 88.7389 330.501 89.2842 385.486C119.533 422.473 120.026 422.758 156.013 447.425C152.515 503.689 153.897 503.577 151.658 557.332C85.6512 556.588 -10.3724 460.407 0.910858 435.36" sodipodi:nodetypes="cccccccccccc"/><path id="shape12" transform="translate(35.369999684317, 172.079998464158)" fill="#2f2313" fill-rule="evenodd" stroke-opacity="0" stroke="#000000" stroke-width="0" stroke-linecap="square" stroke-linejoin="bevel" d="M42.21 138.87C26.8703 118.47 12.4678 98.07 0 77.67C17.0756 49.7777 35.4492 22.8949 58.95 0C80.7227 10.7473 101.237 22.7533 121.59 34.92L39.51 135.36" sodipodi:nodetypes="ccccc"/><path id="shape41" transform="translate(580.85999486401, 171.719998499558)" fill="#2f2313" fill-rule="evenodd" stroke-opacity="0" stroke="#000000" stroke-width="0" stroke-linecap="square" stroke-linejoin="bevel" d="M0 36C20.4364 22.6327 41.4844 10.4888 63.36 0C84.4845 22.9155 104.683 48.9171 120.96 77.76L79.38 138.6L1.62 34.92" sodipodi:nodetypes="ccccc"/><path id="shape22" transform="translate(68.3999999363001, 205.1999998089)" fill="#000000" fill-rule="evenodd" stroke-opacity="0" stroke="#000000" stroke-width="0" stroke-linecap="square" stroke-linejoin="bevel" d="M15.12 74.88L0 54.72C8.33319 35.7946 17.5025 17.0365 35.28 0L56.16 9.36C38.2688 30.96 26.0963 52.56 15.84 74.16" sodipodi:nodetypes="ccccc"/><path id="shape31" transform="translate(611.279999430724, 205.91999980823)" fill="#000000" fill-rule="evenodd" stroke-opacity="0" stroke="#000000" stroke-width="0" stroke-linecap="square" stroke-linejoin="bevel" d="M1.44 7.92L23.76 0C37.6037 16.08 47.3305 32.16 55.44 48.24L41.04 74.16C28.8948 51.3126 15.9543 28.8629 0 7.92" sodipodi:nodetypes="ccccc"/><path id="shape51" transform="translate(101.519993854393, 301.679981737522)" fill="#634b1f" fill-rule="evenodd" stroke-opacity="0" stroke="#000000" stroke-width="0" stroke-linecap="square" stroke-linejoin="bevel" d="M91.44 361.44C92.1989 324.96 93.9681 287.67 96.75 250.11C69.8994 229.603 49.3047 213.988 28.8 187.29C34.0584 127.438 38.3867 89.9358 49.86 5.58L24.48 0C12.8065 65.5488 5.98158 132.714 0 200.16C25.0949 227.849 45.9365 246.579 69.12 262.8C66.48 291.904 64.56 323.323 61.92 354.24C75.3007 359 83.7446 360.47 91.44 361.44" sodipodi:nodetypes="ccccccccc"/><path id="shape011" transform="matrix(-1 0 0 1 639.719980306921 298.943982932444)" fill="#634b1f" fill-rule="evenodd" stroke-opacity="0" stroke="#000000" stroke-width="0" stroke-linecap="square" stroke-linejoin="bevel" d="M97.3092 363.816C98.1168 327.096 99.9995 289.561 102.96 251.754C74.386 231.112 52.4694 215.395 30.6486 188.521C36.2445 128.276 40.8506 90.527 53.0603 5.61668L26.0513 0C13.6285 65.9797 6.36551 133.586 0 201.476C26.7056 229.347 48.885 248.2 73.5565 264.528C70.7471 293.823 68.7038 325.448 65.8944 356.569C80.134 361.36 89.1198 362.84 97.3092 363.816" sodipodi:nodetypes="ccccccccc"/><path id="shape211" transform="translate(212.399998104295, 56.1599994987629)" fill="#2f2313" fill-rule="evenodd" stroke-opacity="0" stroke="#000000" stroke-width="0" stroke-linecap="square" stroke-linejoin="bevel" d="M5.04 103.68C2.69513 78.3876 0.906579 53.3733 0 28.8C28.1548 15.4494 57.526 6.15324 87.84 0C98.2247 19.6272 107.232 32.7115 120.24 64.8L5.04 103.68" sodipodi:nodetypes="ccccc"/><path id="shape311" transform="translate(403.019996451261, 55.3499995301321)" fill="#2f2313" fill-rule="evenodd" stroke-opacity="0" stroke="#000000" stroke-width="0" stroke-linecap="square" stroke-linejoin="bevel" d="M0 66.24C9.99802 43.5682 20.9049 21.2338 32.4 0C64.126 7.73791 95.1429 16.8943 123.3 31.77L116.1 105.03L1.62 67.05" sodipodi:nodetypes="ccccc"/><path id="shape6" transform="translate(232.55999978342, 84.959999920878)" fill="#000000" fill-rule="evenodd" stroke-opacity="0" stroke="#000000" stroke-width="0" stroke-linecap="square" stroke-linejoin="bevel" d="M1.44 43.92L0 18.72C18.0274 9.6411 37.8928 3.31914 59.76 0L72.72 21.6C46.8183 26.8983 23.5131 34.7931 1.44 43.92" sodipodi:nodetypes="ccccc"/><path id="shape7" transform="translate(429.119999600367, 84.2399999215485)" fill="#000000" fill-rule="evenodd" stroke-opacity="0" stroke="#000000" stroke-width="0" stroke-linecap="square" stroke-linejoin="bevel" d="M2.16 24.48L15.12 0C35.6979 3.30634 55.5005 8.93855 74.16 18L71.28 43.92C47.52 35.1658 23.76 27.5252 0 24.48" sodipodi:nodetypes="ccccc"/><path id="shape8" transform="translate(94.3199971012095, 542.879983315358)" fill="#000000" fill-rule="evenodd" stroke-opacity="0" stroke="#000000" stroke-width="0" stroke-linecap="square" stroke-linejoin="bevel" d="M0 42.48L15.12 0L26.64 11.52L10.08 53.28L0 42.48" sodipodi:nodetypes="ccccc"/><path id="shape9" transform="translate(115.919996437364, 568.799982518744)" fill="#000000" fill-rule="evenodd" stroke-opacity="0" stroke="#000000" stroke-width="0" stroke-linecap="square" stroke-linejoin="bevel" d="M0 43.2L17.28 0L28.8 10.08L10.08 49.68L0 43.2" sodipodi:nodetypes="ccccc"/><path id="shape021" transform="matrix(-0.999999963119746 0 0 1 641.519980283802 540.359983545491)" fill="#000000" fill-rule="evenodd" stroke-opacity="0" stroke="#000000" stroke-width="0" stroke-linecap="square" stroke-linejoin="bevel" d="M0 42.48L15.12 0L26.64 11.52L10.08 53.28L0 42.48" sodipodi:nodetypes="ccccc"/><path id="shape111" transform="matrix(-0.999999963119746 0 0 1 619.919981744261 566.279982748877)" fill="#000000" fill-rule="evenodd" stroke-opacity="0" stroke="#000000" stroke-width="0" stroke-linecap="square" stroke-linejoin="bevel" d="M0 43.2L17.28 0L28.8 10.08L10.08 49.68L0 43.2" sodipodi:nodetypes="ccccc"/><path id="shape10" transform="translate(186.83999982601, 197.639999815953)" fill="#634b1f" fill-rule="evenodd" stroke-opacity="0" stroke="#000000" stroke-width="0" stroke-linecap="square" stroke-linejoin="bevel" d="M0 0C124.713 35.6017 246.081 32.5592 365.04 0.54C314.888 23.8008 242.199 48.8033 179.28 49.14C115.755 48.5597 54.9137 29.3036 0 0Z" sodipodi:nodetypes="cccc"/>
</svg>
