<?xml version="1.0" standalone="no"?>
<!DOCTYPE svg PUBLIC "-//W3C//DTD SVG 20010904//EN" "http://www.w3.org/TR/2001/REC-SVG-20010904/DTD/svg10.dtd">
<!-- Created using Krita: https://krita.org -->
<svg xmlns="http://www.w3.org/2000/svg" 
    xmlns:xlink="http://www.w3.org/1999/xlink"
    xmlns:krita="http://krita.org/namespaces/svg/krita"
    xmlns:sodipodi="http://sodipodi.sourceforge.net/DTD/sodipodi-0.dtd"
    width="23.04pt"
    height="23.04pt"
    viewBox="0 0 23.04 23.04">
<defs/>
<path id="shape0" transform="translate(3.32859367052032, 1.70718625021606)" fill="#ffffff" stroke-opacity="0" stroke="#000000" stroke-width="0" stroke-linecap="square" stroke-linejoin="bevel" d="M0 2.17125L5.76 4.3425L11.52 2.17125L5.76 0Z" sodipodi:nodetypes="ccccc"/><path id="shape1" transform="translate(3.49734362007209, 4.23843624987037)" fill="#ffffff" fill-rule="evenodd" stroke-opacity="0" stroke="#000000" stroke-width="0" stroke-linecap="square" stroke-linejoin="bevel" d="M0 0L0 12.96L5.4 15.12L5.49 2.16Z" sodipodi:nodetypes="ccccc"/><path id="shape01" transform="translate(9.22078101093241, 4.42406124416546)" fill="#ffffff" stroke-opacity="0" stroke="#000000" stroke-width="0" stroke-linecap="square" stroke-linejoin="bevel" d="M0 1.8L5.0175 3.78563L10.4906 1.98563L5.085 0Z" sodipodi:nodetypes="ccccc"/><path id="shape11" transform="translate(9.38953096048418, 6.58406124416546)" fill="#ffffff" fill-rule="evenodd" stroke-opacity="0" stroke="#000000" stroke-width="0" stroke-linecap="square" stroke-linejoin="bevel" d="M0 0L0.03375 1.97438L4.69125 3.94875L4.6575 1.97438Z" sodipodi:nodetypes="ccccc"/><path id="shape011" transform="matrix(-1 0 0 1 19.705781131254 6.76968624399261)" fill="#ffffff" stroke-opacity="0" stroke="#000000" stroke-width="0" stroke-linecap="square" stroke-linejoin="bevel" d="M0.03375 0L0 1.97438L5.39438 3.76313L5.42813 1.78875Z" sodipodi:nodetypes="ccccc"/><path id="shape02" transform="translate(8.855151086652, 15.2240587499568)" fill="#ffffff" stroke-opacity="0" stroke="#000000" stroke-width="0" stroke-linecap="square" stroke-linejoin="bevel" d="M0 1.8L5.0175 3.78563L10.4906 1.98563L5.085 0Z" sodipodi:nodetypes="ccccc"/><path id="shape12" transform="translate(9.02390103620378, 17.3840587499568)" fill="#ffffff" fill-rule="evenodd" stroke-opacity="0" stroke="#000000" stroke-width="0" stroke-linecap="square" stroke-linejoin="bevel" d="M0 0L0.03375 1.97438L4.69125 3.94875L4.6575 1.97438Z" sodipodi:nodetypes="ccccc"/><path id="shape012" transform="matrix(-1 0 0 1 19.3401512069735 17.5696837497839)" fill="#ffffff" stroke-opacity="0" stroke="#000000" stroke-width="0" stroke-linecap="square" stroke-linejoin="bevel" d="M0.03375 0L0 1.97438L5.39438 3.76313L5.42813 1.78875Z" sodipodi:nodetypes="ccccc"/><path id="shape2" transform="translate(9.05484388076874, 8.91843624987036)" fill="#ffffff" fill-rule="evenodd" stroke-opacity="0" stroke="#000000" stroke-width="0" stroke-linecap="square" stroke-linejoin="bevel" d="M0 7.92L0 0L5.90625 2.16L5.805 5.76Z" sodipodi:nodetypes="ccccc"/>
</svg>
