<?xml version="1.0" standalone="no"?>
<!DOCTYPE svg PUBLIC "-//W3C//DTD SVG 20010904//EN" "http://www.w3.org/TR/2001/REC-SVG-20010904/DTD/svg10.dtd">
<!-- Created using Krita: https://krita.org -->
<svg xmlns="http://www.w3.org/2000/svg" 
    xmlns:xlink="http://www.w3.org/1999/xlink"
    xmlns:krita="http://krita.org/namespaces/svg/krita"
    xmlns:sodipodi="http://sodipodi.sourceforge.net/DTD/sodipodi-0.dtd"
    width="23.04pt"
    height="23.04pt"
    viewBox="0 0 23.04 23.04">
<defs/>
<path id="shape5" transform="matrix(0.03125 0 0 0.03125 2.35406233817364 3.42113776789232)" fill="#e0e0e0" fill-rule="evenodd" stroke-opacity="0" stroke="#000000" stroke-width="0" stroke-linecap="square" stroke-linejoin="bevel" d="M0 191.753C139.8 -60.3665 436.47 -67.5965 584.91 192.203L586.17 233.963C556.558 236.784 517.497 240.847 487.885 243.815C487.077 236.824 483.478 231.018 477.81 231.623C288.992 219.575 290.852 220.096 105.93 232.883C97.1153 232.159 97.2781 238.004 97.1034 244.03C70.8781 241.874 27.0353 238.279 0.81 236.123" sodipodi:nodetypes="cccccccc"/><path id="shape6" transform="matrix(0.03125 0 0 0.03125 2.33999983964025 11.5424990802485)" fill="#e0e0e0" fill-rule="evenodd" stroke-opacity="0" stroke="#000000" stroke-width="0" stroke-linecap="square" stroke-linejoin="bevel" d="M0 0L97.2 9.36L100.08 196.56C100.436 202.345 104.245 205.7 109.44 208.08L228.6 216.9L358.2 215.82C397.2 213.48 436.2 211.14 475.2 208.8C481.526 206.664 485.431 203.014 486 197.28L489.6 11.52L586.08 1.44L586.08 172.08C572.534 285.062 417.518 312.64 298.08 316.8C198.092 310.589 29.1915 303.725 0.72 177.84L0 138.24" sodipodi:nodetypes="cccccccccccccc"/><path id="shape7" transform="matrix(0.03125 0 0 0.03125 1.10531249013491 5.17499995381228)" fill="#e0e0e0" fill-rule="evenodd" stroke-opacity="0" stroke="#000000" stroke-width="0" stroke-linecap="square" stroke-linejoin="bevel" d="M42.21 138.87C26.8703 118.47 12.4678 98.07 0 77.67C17.0756 49.7777 35.4492 22.8949 58.95 0C80.7227 10.7473 101.237 22.7533 121.59 34.92L39.51 135.36" sodipodi:nodetypes="ccccc"/><path id="shape8" transform="matrix(0.03125 0 0 0.03125 6.63749994075922 1.55249998614368)" fill="#e0e0e0" fill-rule="evenodd" stroke-opacity="0" stroke="#000000" stroke-width="0" stroke-linecap="square" stroke-linejoin="bevel" d="M5.04 103.68C2.69513 78.3876 0.906579 53.3733 0 28.8C28.1548 15.4494 57.526 6.15324 87.84 0C98.2247 19.6272 107.232 32.7115 120.24 64.8L5.04 103.68" sodipodi:nodetypes="ccccc"/><path id="shape9" transform="matrix(0.03125 0 0 0.03125 12.5943748891019 1.52718748712397)" fill="#e0e0e0" fill-rule="evenodd" stroke-opacity="0" stroke="#000000" stroke-width="0" stroke-linecap="square" stroke-linejoin="bevel" d="M0 66.24C9.99802 43.5682 20.9049 21.2338 32.4 0C64.126 7.73791 95.1429 16.8943 123.3 31.77L116.1 105.03L1.62 67.05" sodipodi:nodetypes="ccccc"/><path id="shape10" transform="matrix(0.03125 0 0 0.03125 18.1518748395003 5.16374995491853)" fill="#e0e0e0" fill-rule="evenodd" stroke-opacity="0" stroke="#000000" stroke-width="0" stroke-linecap="square" stroke-linejoin="bevel" d="M0 36C20.4364 22.6327 41.4844 10.4888 63.36 0C84.4845 22.9155 104.683 48.9171 120.96 77.76L79.38 138.6L1.62 34.92" sodipodi:nodetypes="ccccc"/><path id="shape11" transform="matrix(0.03125 0 0 0.03125 4.67999983920753 9.09540511540275)" fill="#e0e0e0" fill-rule="evenodd" stroke-opacity="0" stroke="#000000" stroke-width="0" stroke-linecap="square" stroke-linejoin="bevel" d="M170.46 77.407C179.129 76.9848 185.19 68.1069 188.1 56.167C210.558 60.3773 233.505 61.6561 257.4 57.247C260.798 71.2116 267.873 77.8215 277.02 80.287C332.574 79.6753 385.318 88.5638 437.94 66.967C409.149 52.6639 410.393 31.0493 391.32 8.82702C367.951 -7.12794 356.345 1.91432 344.16 9.72702C316.882 -3.11886 314.75 10.9761 306.36 18.367C272.196 5.92608 268.599 20.6555 259.02 30.067C236.213 38.6805 211.086 38.0114 183.96 29.347C171.951 18.9418 162.827 3.72883 134.28 20.887C121.816 2.81353 108.401 3.75095 94.5 14.407C80.4681 -4.68429 55.1473 -0.274165 40.14 15.667C23.963 26.4619 22.189 57.4319 0 68.407C37.535 79.921 94.355 82.921 170.46 77.407Z" sodipodi:nodetypes="ccccccccccccccc"/><path id="shape12" transform="matrix(0.03125 0 0 0.03125 4.94163749034361 11.8293745428848)" fill="#e0e0e0" fill-rule="evenodd" stroke-opacity="0" stroke="#000000" stroke-width="0" stroke-linecap="square" stroke-linejoin="bevel" d="M14.3976 0C1.99623 62.8347 -6.19697 119.47 6.0276 186.3C7.99534 205.04 20.0697 207.837 30.3276 212.76C74.0889 219.806 100.027 219.071 136.708 217.62C152.926 232.851 168.369 235.686 183.148 227.88C200.945 243.122 218.451 242.872 237.688 227.88C249.819 230.358 260.766 234.19 286.828 214.38C320.054 219.673 345.638 218.03 393.208 208.98C402.732 207.693 412.855 195.62 411.028 187.38C423.128 88.882 417.682 76.1186 406.168 1.62C403.009 57.8919 405.449 101.013 395.908 173.88C395.675 181.034 392.534 187.605 385.108 193.32C356.174 196.79 332.372 201.747 289.528 195.48C286.54 181.223 280.747 175.383 274.948 169.56L145.888 173.34C139.863 181.012 132.605 187.698 133.468 200.88C101.248 202.278 69.0276 202.408 36.8076 193.86C30.2613 194.372 21.0591 183.058 21.6876 174.96C12.9711 114.3 16.5264 60.66 14.3976 0Z" sodipodi:nodetypes="ccccccccccccccccccc"/><path id="shape02" transform="matrix(0.0312108051419112 0.00156465408114842 -0.00156465408114842 0.0312108051419112 9.43145640976401 12.4087537456867)" fill="#e0e0e0" fill-rule="evenodd" stroke-opacity="0" stroke="#000000" stroke-width="0" stroke-linecap="square" stroke-linejoin="bevel" d="M25.3442 0C26.4822 30.0799 29.8007 129.736 50.1219 168.739C41.8992 194.132 12.6695 201.822 1.40899 168.627C-2.53952 141.269 0.722472 92.5615 25.3442 0Z" sodipodi:nodetypes="cccc"/><path id="shape011" transform="matrix(-0.0311791706205425 0.00210281226339805 0.00210281226339805 0.0311791706205425 13.4382368671761 12.3334536079248)" fill="#e0e0e0" fill-rule="evenodd" stroke-opacity="0" stroke="#000000" stroke-width="0" stroke-linecap="square" stroke-linejoin="bevel" d="M25.872 0C27.0337 30.0799 30.4213 129.736 51.1657 168.739C42.7718 194.132 12.9334 201.822 1.43834 168.627C-2.5924 141.269 0.737504 92.5615 25.872 0Z" sodipodi:nodetypes="cccc"/><path id="shape13" transform="matrix(0.03125 0 0 0.03125 10.6606700529708 12.2928800641203)" fill="#e0e0e0" fill-rule="evenodd" stroke-opacity="0" stroke="#000000" stroke-width="0" stroke-linecap="square" stroke-linejoin="bevel" d="M26.2473 0C34.3451 30.3249 52.2664 132.932 53.4186 179.885C46.5616 209.656 8.56822 216.234 0 179.766C0.676795 142.86 9.42588 82.9377 26.2473 0Z" sodipodi:nodetypes="cccc"/><path id="shape021" transform="matrix(-0.0306311109977952 0.00618850054866091 -0.00618850054866091 -0.0306311109977952 18.2860558878101 14.5524660461901)" fill="#e0e0e0" fill-rule="evenodd" stroke-opacity="0" stroke="#000000" stroke-width="0" stroke-linecap="square" stroke-linejoin="bevel" d="M31.1179 0C31.9775 20.4077 24.4188 49.7756 39.1248 102.971C46.7789 129.424 53.9991 122.324 52.9315 147.488C47.2376 176.947 17.169 172.251 6.36481 143.642C-1.83025 117.921 -8.94306 74.9456 31.1179 0Z" sodipodi:nodetypes="ccccc"/><path id="shape03" transform="matrix(-0.031009384126131 0.003870477505177 -0.003870477505177 -0.031009384126131 16.6878570818165 15.185273954892)" fill="#e0e0e0" fill-rule="evenodd" stroke-opacity="0" stroke="#000000" stroke-width="0" stroke-linecap="square" stroke-linejoin="bevel" d="M33.6519 0C34.5815 21.6413 26.4073 52.7845 42.3108 109.195C50.5882 137.248 58.3964 129.718 57.2418 156.403C51.0842 187.643 18.5671 182.663 6.88311 152.325C-1.97929 125.049 -9.67131 79.4759 33.6519 0Z" sodipodi:nodetypes="ccccc"/><path id="shape04" transform="matrix(-0.03108713613823 0.00318629357140475 -0.00318629357140475 -0.03108713613823 15.2888956029644 15.9380571907346)" fill="#e0e0e0" fill-rule="evenodd" stroke-opacity="0" stroke="#000000" stroke-width="0" stroke-linecap="square" stroke-linejoin="bevel" d="M35.7267 0C36.7136 23.6797 28.0354 57.7564 44.9195 119.48C53.7072 150.176 61.9968 141.936 60.771 171.135C54.2338 205.318 19.7118 199.868 7.30749 166.673C-2.10132 136.828 -10.2676 86.962 35.7267 0Z" sodipodi:nodetypes="ccccc"/><path id="shape05" transform="matrix(0.0324405452330184 0.00618850054866091 0.00655406628861237 -0.0306311109977952 4.75874957880871 14.5226582784699)" fill="#e0e0e0" fill-rule="evenodd" stroke-opacity="0" stroke="#000000" stroke-width="0" stroke-linecap="square" stroke-linejoin="bevel" d="M31.1179 0C31.9775 20.4077 24.4188 49.7756 39.1248 102.971C46.7789 129.424 53.9991 122.324 52.9315 147.488C47.2376 176.947 17.169 172.251 6.36481 143.642C-1.83025 117.921 -8.94306 74.9456 31.1179 0Z" sodipodi:nodetypes="ccccc"/><path id="shape0111" transform="matrix(0.0328411636281884 0.00387047750517703 0.00409911349898844 -0.031009384126131 6.40165748864797 15.2567161934735)" fill="#e0e0e0" fill-rule="evenodd" stroke-opacity="0" stroke="#000000" stroke-width="0" stroke-linecap="square" stroke-linejoin="bevel" d="M33.6519 0C34.5815 21.6413 26.4073 52.7845 42.3108 109.195C50.5882 137.248 58.3964 129.718 57.2418 156.403C51.0842 187.643 18.5671 182.663 6.88311 152.325C-1.97929 125.049 -9.67131 79.4759 33.6519 0Z" sodipodi:nodetypes="ccccc"/><path id="shape0211" transform="matrix(0.0329235085900031 0.00318629357140475 0.00337451360273127 -0.0310871361382299 7.8415334085198 15.9757494321003)" fill="#e0e0e0" fill-rule="evenodd" stroke-opacity="0" stroke="#000000" stroke-width="0" stroke-linecap="square" stroke-linejoin="bevel" d="M35.7267 0C36.7136 23.6797 28.0354 57.7564 44.9195 119.48C53.7072 150.176 61.9968 141.936 60.771 171.135C54.2338 205.318 19.7118 199.868 7.30749 166.673C-2.10132 136.828 -10.2676 86.962 35.7267 0Z" sodipodi:nodetypes="ccccc"/>
</svg>
